<?xml version="1.0" encoding="UTF-8" standalone="no"?>
<svg
   xmlns:dc="http://purl.org/dc/elements/1.1/"
   xmlns:cc="http://creativecommons.org/ns#"
   xmlns:rdf="http://www.w3.org/1999/02/22-rdf-syntax-ns#"
   xmlns:svg="http://www.w3.org/2000/svg"
   xmlns="http://www.w3.org/2000/svg"
   xmlns:sodipodi="http://sodipodi.sourceforge.net/DTD/sodipodi-0.dtd"
   xmlns:inkscape="http://www.inkscape.org/namespaces/inkscape"
   version="1.1"
   width="500"
   height="500"
   id="svg8944"
   inkscape:version="0.91+devel+osxmenu r12922"
   sodipodi:docname="logo.svg"
   viewBox="0 0 500 500"
   inkscape:export-filename="/Users/myzinsky/Programming/Faviicon/Faviicon.safariextension/logo-32.png"
   inkscape:export-xdpi="6.1439996"
   inkscape:export-ydpi="6.1439996">
  <metadata
     id="metadata4165">
    <rdf:RDF>
      <cc:Work
         rdf:about="">
        <dc:format>image/svg+xml</dc:format>
        <dc:type
           rdf:resource="http://purl.org/dc/dcmitype/StillImage" />
        <dc:title></dc:title>
      </cc:Work>
    </rdf:RDF>
  </metadata>
  <sodipodi:namedview
     pagecolor="#ffffff"
     bordercolor="#666666"
     borderopacity="1"
     objecttolerance="10"
     gridtolerance="10"
     guidetolerance="10"
     inkscape:pageopacity="0"
     inkscape:pageshadow="2"
     inkscape:window-width="1448"
     inkscape:window-height="824"
     id="namedview4163"
     inkscape:document-units="px"
     showgrid="false"
     inkscape:zoom="1.286"
     inkscape:cx="250.00018"
     inkscape:cy="250.00018"
     inkscape:window-x="0"
     inkscape:window-y="23"
     inkscape:window-maximized="0"
     inkscape:current-layer="svg8944" />
  <defs
     id="defs8946" />
  <rect
     style="opacity:1;fill:#ececec;fill-opacity:1;fill-rule:nonzero;stroke:#000000;stroke-width:7.4607874;stroke-linecap:round;stroke-linejoin:round;stroke-miterlimit:4;stroke-dasharray:none;stroke-dashoffset:0;stroke-opacity:1"
     id="rect4179"
     width="492.53885"
     height="492.53885"
     x="3.7305756"
     y="3.7305756"
     rx="9.8507757"
     ry="9.8507776" />
  <path
     style="fill:#d40000;fill-rule:evenodd;stroke:#aa0000;stroke-width:7.55905533;stroke-linecap:butt;stroke-linejoin:miter;stroke-miterlimit:4;stroke-dasharray:none;stroke-opacity:1"
     d="m 197.90047,155.05754 0,218.507 52.09954,-52.09953 52.09952,52.09953 0,-218.507 z"
     id="path4202"
     inkscape:connector-curvature="0"
     sodipodi:nodetypes="cccccc" />
  <circle
     cx="156.99443"
     cy="94.382515"
     r="32.405468"
     id="circle265"
     style="fill:#cccccc;fill-opacity:1;stroke:#b3b3b3;stroke-width:6.37526417;stroke-opacity:1" />
  <circle
     cx="97.572212"
     cy="207.01112"
     r="59.356895"
     id="circle272"
     style="fill:#cccccc;fill-opacity:1;stroke:#b3b3b3;stroke-width:6.37526417;stroke-opacity:1" />
  <circle
     cx="164.53481"
     cy="167.51476"
     r="64.168625"
     id="circle279"
     style="fill:#cccccc;fill-opacity:1;stroke:#b3b3b3;stroke-width:6.37526417;stroke-opacity:1" />
  <circle
     cx="295.40146"
     cy="141.4973"
     r="59.356895"
     id="circle286"
     style="fill:#cccccc;fill-opacity:1;stroke:#b3b3b3;stroke-width:6.37526417;stroke-opacity:1" />
  <circle
     cx="230.30841"
     cy="95.327644"
     r="59.355305"
     id="circle293"
     style="fill:#cccccc;fill-opacity:1;stroke:#b3b3b3;stroke-width:6.37526417;stroke-opacity:1" />
  <circle
     cx="427.8364"
     cy="229.93178"
     r="33.94828"
     id="circle300"
     style="fill:#cccccc;fill-opacity:1;stroke:#b3b3b3;stroke-width:6.37526417;stroke-opacity:1" />
  <circle
     cx="355.69391"
     cy="203.80118"
     r="64.168625"
     id="circle307"
     style="fill:#cccccc;fill-opacity:1;stroke:#b3b3b3;stroke-width:6.37526417;stroke-opacity:1" />
  <circle
     cx="160.60922"
     cy="233.2039"
     r="33.946686"
     id="circle314"
     style="fill:#cccccc;fill-opacity:1;stroke:#b3b3b3;stroke-width:6.37526417;stroke-opacity:1" />
  <path
     d="m 331.69741,184.84432 c 0,45.1815 -36.63226,81.80739 -81.81695,81.80739 -45.18468,0 -81.81535,-36.62589 -81.81535,-81.80739 0,-45.18628 36.63226,-81.81535 81.81535,-81.81535 45.18309,0 81.81695,36.62907 81.81695,81.81535 z"
     id="path321"
     style="fill:#d40000;fill-opacity:1;stroke:#aa0000;stroke-width:6.37526417;stroke-opacity:1"
     inkscape:connector-curvature="0" />
  <path
     style="opacity:1;fill:#ffcc00;fill-opacity:1;fill-rule:nonzero;stroke:#d4aa00;stroke-width:7.55905533;stroke-linecap:round;stroke-linejoin:round;stroke-miterlimit:4;stroke-dasharray:none;stroke-dashoffset:0;stroke-opacity:1"
     inkscape:transform-center-x="-0.78491534"
     inkscape:transform-center-y="-5.7774953"
     d="m 287.61688,236.39192 -36.80606,-15.58698 -36.31586,16.69724 3.4504,-39.82129 -27.10225,-29.37871 38.93853,-9.02392 19.56576,-34.85429 20.61493,34.24419 39.19455,7.83758 -26.1978,30.188 z"
     id="path4204" />
  <g
     style="font-style:normal;font-variant:normal;font-weight:normal;font-stretch:normal;font-size:21.33333397px;line-height:125%;font-family:'Times New Roman';-inkscape-font-specification:'Times New Roman, ';letter-spacing:0px;word-spacing:0px;fill:#000000;fill-opacity:1;stroke:none;stroke-width:1px;stroke-linecap:butt;stroke-linejoin:miter;stroke-opacity:1"
     aria-label="Faviicon"
     id="text4206">
    <path
       d="m 74.947926,469.6734 0,-32.55208 33.281254,0 0,-8.33333 -33.281254,0 0,-25.83334 36.250004,0 0,-8.4375 -45.625003,0 0,75.15625 q 0,0 1.40625,0 1.40625,0 3.28125,0 1.875,0 3.281249,0 1.40625,0 1.40625,0 z"
       style="font-style:normal;font-variant:normal;font-weight:normal;font-stretch:normal;font-size:106.66666412px;font-family:Systemschrift;-inkscape-font-specification:Systemschrift"
       id="path4212" />
    <path
       d="m 139.21876,462.32965 q -5.3125,0 -8.48958,-2.34375 -3.125,-2.34375 -3.125,-6.25 0,-8.22917 12.81249,-9.01042 l 14.6875,-0.9375 0,4.53125 q 0,6.04167 -4.53125,10.05209 -4.47916,3.95833 -11.35416,3.95833 z m -1.92708,7.86458 q 5.88541,0 10.78124,-2.76041 4.89584,-2.8125 7.29167,-7.5 l 0.20833,0 0,9.73958 8.59375,0 0,-38.54166 q 0,-8.28125 -5.9375,-13.17709 -5.9375,-4.94791 -15.88541,-4.94791 -8.80208,0 -14.94792,4.79166 -6.09375,4.79167 -6.30208,11.92709 l 8.69792,0 q 0.83333,-4.01042 4.16666,-6.30209 3.38542,-2.34375 8.28125,-2.34375 6.19792,0 9.53125,2.8125 3.33333,2.76042 3.33333,8.02084 l 0,4.6875 -15.72916,0.93749 q -21.04167,1.30209 -21.04167,16.14584 0,7.44791 5.20834,11.97916 5.20833,4.53125 13.75,4.53125 z"
       style="font-style:normal;font-variant:normal;font-weight:normal;font-stretch:normal;font-size:106.66666412px;font-family:Systemschrift;-inkscape-font-specification:Systemschrift"
       id="path4214" />
    <path
       d="m 222.08334,413.52757 -9.42708,0 -15.78125,46.35416 -0.20833,0 -15.72917,-46.35416 -9.47917,0 20.72917,56.14583 9.16667,0 q 0,0 2.08333,-5.67708 2.08333,-5.67709 5.15625,-14.01042 3.125,-8.38542 6.19792,-16.71875 3.125,-8.38541 5.20833,-14.0625 2.08333,-5.67708 2.08333,-5.67708 z"
       style="font-style:normal;font-variant:normal;font-weight:normal;font-stretch:normal;font-size:106.66666412px;font-family:Systemschrift;-inkscape-font-specification:Systemschrift"
       id="path4216" />
    <path
       d="m 230.15625,469.6734 9.0625,0 0,-56.14583 -9.0625,0 q 0,0 0,5.67708 0,5.67709 0,14.0625 0,8.33333 0,16.71875 0,8.33333 0,14.01042 0,5.67708 0,5.67708 z m 4.53125,-65.20833 q 2.39584,0 4.0625,-1.66667 1.66667,-1.71875 1.66667,-4.0625 0,-2.39583 -1.66667,-4.0625 -1.66666,-1.66666 -4.0625,-1.66666 -2.34375,0 -4.0625,1.66666 -1.66666,1.66667 -1.66666,4.0625 0,2.34375 1.66666,4.0625 1.71875,1.66667 4.0625,1.66667 z"
       style="font-style:normal;font-variant:normal;font-weight:normal;font-stretch:normal;font-size:106.66666412px;font-family:Systemschrift;-inkscape-font-specification:Systemschrift"
       id="path4218" />
    <path
       d="m 252.65625,469.6734 9.0625,0 0,-56.14583 -9.0625,0 q 0,0 0,5.67708 0,5.67709 0,14.0625 0,8.33333 0,16.71875 0,8.33333 0,14.01042 0,5.67708 0,5.67708 z m 4.53125,-65.20833 q 2.39584,0 4.0625,-1.66667 1.66667,-1.71875 1.66667,-4.0625 0,-2.39583 -1.66667,-4.0625 -1.66666,-1.66666 -4.0625,-1.66666 -2.34375,0 -4.0625,1.66666 -1.66666,1.66667 -1.66666,4.0625 0,2.34375 1.66666,4.0625 1.71875,1.66667 4.0625,1.66667 z"
       style="font-style:normal;font-variant:normal;font-weight:normal;font-stretch:normal;font-size:106.66666412px;font-family:Systemschrift;-inkscape-font-specification:Systemschrift"
       id="path4220" />
    <path
       d="m 321.04167,431.80882 q -0.83333,-7.39583 -6.97917,-13.07292 -6.14583,-5.72916 -16.5625,-5.72916 -11.51041,0 -18.59375,7.86458 -7.03124,7.8125 -7.03124,20.72916 0,13.22917 7.08333,20.9375 7.08333,7.65625 18.64583,7.65625 9.63542,0 15.98958,-5.15625 6.40625,-5.15625 7.55209,-13.33333 l -8.90625,0 q -1.14584,5.05208 -4.94792,7.76042 -3.75,2.65625 -9.63542,2.65625 -7.34375,0 -11.97916,-5.46875 -4.58334,-5.46875 -4.58334,-15.05209 0,-9.32291 4.53125,-14.89583 4.58334,-5.625 11.92709,-5.625 6.35416,0 10.05208,3.125 3.69792,3.125 4.53125,7.60417 0,0 1.35417,0 1.35416,0 3.07291,0 1.77084,0 3.125,0 1.35417,0 1.35417,0 z"
       style="font-style:normal;font-variant:normal;font-weight:normal;font-stretch:normal;font-size:106.66666412px;font-family:Systemschrift;-inkscape-font-specification:Systemschrift"
       id="path4222" />
    <path
       d="m 352.96875,470.19423 q 11.82292,0 18.85417,-7.76041 7.03125,-7.8125 7.03125,-20.83334 0,-13.07291 -7.03125,-20.83333 -7.03125,-7.76041 -18.85417,-7.76041 -11.82292,0 -18.85417,7.76041 -7.03125,7.76042 -7.03125,20.83333 0,13.02084 7.03125,20.83334 7.03125,7.76041 18.85417,7.76041 z m 0,-8.07291 q -7.8125,0 -12.23958,-5.41667 -4.42709,-5.46875 -4.42709,-15.10417 0,-9.63541 4.375,-15.05208 4.42709,-5.46875 12.29167,-5.46875 7.86458,0 12.23958,5.41667 4.42709,5.41667 4.42709,15.10416 0,9.63542 -4.42709,15.10417 -4.375,5.41667 -12.23958,5.41667 z"
       style="font-style:normal;font-variant:normal;font-weight:normal;font-stretch:normal;font-size:106.66666412px;font-family:Systemschrift;-inkscape-font-specification:Systemschrift"
       id="path4224" />
    <path
       d="m 388.38541,469.6734 9.0625,0 0,-32.60417 q 0,-7.23958 3.90625,-11.61458 3.95833,-4.375 10.88541,-4.375 6.66667,0 9.89584,3.64584 3.22916,3.64583 3.22916,10.52083 l 0,34.42708 9.0625,0 0,-35.98958 q 0,-9.58333 -5.10416,-15.10417 -5.10417,-5.57291 -14.375,-5.57291 -6.51042,0 -10.83334,2.44791 -4.32291,2.39584 -6.97916,7.1875 l -0.20834,0 0,-9.11458 -8.54166,0 q 0,0 0,5.67708 0,5.67709 0,14.0625 0,8.33333 0,16.71875 0,8.33333 0,14.01042 0,5.67708 0,5.67708 z"
       style="font-style:normal;font-variant:normal;font-weight:normal;font-stretch:normal;font-size:106.66666412px;font-family:Systemschrift;-inkscape-font-specification:Systemschrift"
       id="path4226" />
  </g>
</svg>
